<svg width="12" height="10" viewBox="0 0 12 10" fill="none" xmlns="http://www.w3.org/2000/svg">
<path d="M11.6266 5.16556L7.54323 9.2489C7.45807 9.33406 7.34605 9.37721 7.23405 9.37721C7.12205 9.37721 7.01003 9.33465 6.92487 9.2489C6.75395 9.07798 6.75395 8.80087 6.92487 8.62996L10.2616 5.29331H0.817383C0.575883 5.29331 0.379883 5.09731 0.379883 4.85581C0.379883 4.61431 0.575883 4.41831 0.817383 4.41831H10.261L6.9243 1.08162C6.75338 0.910706 6.75338 0.633638 6.9243 0.462721C7.09521 0.291805 7.37232 0.291805 7.54323 0.462721L11.6266 4.54605C11.7975 4.71814 11.7975 4.99465 11.6266 5.16556Z" fill="#2E2E2E"/>
</svg>
